# xmcd
#
# Track frame offsets:
#	150
#	13416
#	28192
#	38876
#	52930
#	66352
#	77780
#	93087
#	105525
#	121317
#	133273
#	147904
#	164285
#	175160
#
# Disc length: 2517 seconds
#
# Revision: 0
# Processed by: cddbd v1.4PL0 Copyright (c) Steve Scherf et al.
# Submitted via: EasyCDDAExtractor 4.6.9.1
#
DISCID=be09d30e
DTITLE=the Whiteliners - Side Burnin'
DYEAR=2000
DGENRE=Country
TTITLE0=Volcano Girl
TTITLE1=First Exit
TTITLE2=Ramblin' Daddy
TTITLE3=Rodeo King
TTITLE4=Bottle Talk
TTITLE5=Truck Stop Queen
TTITLE6=Moon Man Rock
TTITLE7=Rio Grande
TTITLE8=Parramatta Hotrod Man
TTITLE9=Tonight's The Night
TTITLE10=Cut Me Down To Size
TTITLE11=Broken Heart Blues
TTITLE12=Left And Right
TTITLE13=Un-Tamworthy
EXTD=
EXTT0=
EXTT1=
EXTT2=
EXTT3=
EXTT4=
EXTT5=
EXTT6=
EXTT7=
EXTT8=
EXTT9=
EXTT10=
EXTT11=
EXTT12=
EXTT13=
PLAYORDER=
